<svg width="127" height="49" viewBox="0 0 127 49" fill="none" xmlns="http://www.w3.org/2000/svg">
  <path d="M83.75 29.151L86.8125 13.052H91.4845L86.4375 35.6777H81.719L78.0155 20.5421L74.3125 35.6777H69.594L64.547 13.052H69.219L72.297 29.12L76.047 13.052H80.0155L83.75 29.151ZM99.14 35.6777H94.6085V18.8638H99.14V35.6777ZM94.343 14.5127C94.343 13.8393 94.567 13.2851 95.015 12.85C95.4735 12.4149 96.093 12.1973 96.8745 12.1973C97.645 12.1973 98.26 12.4149 98.718 12.85C99.1765 13.2851 99.4055 13.8393 99.4055 14.5127C99.4055 15.1964 99.171 15.7559 98.7025 16.191C98.244 16.6261 97.635 16.8436 96.8745 16.8436C96.114 16.8436 95.4995 16.6261 95.0305 16.191C94.5725 15.7559 94.343 15.1964 94.343 14.5127ZM109.655 28.9335L108.03 30.5496V35.6777H103.514V11.8088H108.03V25.0331L108.905 23.9142L113.233 18.8638H118.655L112.545 25.8721L119.186 35.6777H113.998L109.655 28.9335ZM126.013 35.6777H121.482V18.8638H126.013V35.6777ZM121.217 14.5127C121.217 13.8393 121.441 13.2851 121.888 12.85C122.347 12.4149 122.967 12.1973 123.748 12.1973C124.519 12.1973 125.133 12.4149 125.592 12.85C126.05 13.2851 126.279 13.8393 126.279 14.5127C126.279 15.1964 126.045 15.7559 125.576 16.191C125.118 16.6261 124.508 16.8436 123.748 16.8436C122.987 16.8436 122.373 16.6261 121.904 16.191C121.446 15.7559 121.217 15.1964 121.217 14.5127Z" fill="#111111" />
  <path fill-rule="evenodd" clip-rule="evenodd" d="M8 0.868889H24H40C44.4183 0.868889 48 4.43105 48 8.82519V40.6504C48 45.0445 44.4183 48.6067 40 48.6067H24H8C3.58173 48.6067 0 45.0445 0 40.6504V8.82519C0 4.43105 3.58172 0.868889 8 0.868889ZM24 38.164H29V35.6777H34V33.1913H36.5V30.705H39V23.246H36.5V20.7596H34V18.2733H31.5V15.7869H29V13.3006H26.5V10.8143H24H21.5V13.3006H19V15.7869H16.5V18.2733H14V20.7596H11.5V23.246H9V30.705H11.5V33.1913H14V35.6777H19V38.164H24Z" fill="#F53131" />
</svg>